<?xml version="1.0" standalone="no"?>
<!DOCTYPE svg PUBLIC "-//W3C//DTD SVG 20010904//EN"
 "http://www.w3.org/TR/2001/REC-SVG-20010904/DTD/svg10.dtd">
<svg version="1.0" xmlns="http://www.w3.org/2000/svg"
 width="2834.000000pt" height="1870.000000pt" viewBox="0 0 2834.000000 1870.000000"
 preserveAspectRatio="xMidYMid meet">

<g transform="translate(0.000000,1870.000000) scale(0.100000,-0.100000)"
fill="#000000" stroke="none">
<path d="M13380 18679 c-3795 -143 -7303 -1271 -9835 -3163 -1097 -819 -1993
-1790 -2586 -2801 -556 -950 -870 -1940 -939 -2960 -13 -193 -13 -617 0 -810
85 -1266 551 -2492 1380 -3630 480 -660 1128 -1327 1840 -1896 2042 -1632
4844 -2761 7950 -3203 993 -142 1924 -206 2980 -206 1056 0 1987 64 2980 206
3105 442 5908 1571 7950 3203 514 410 1021 898 1421 1366 1012 1184 1621 2515
1773 3875 49 429 49 951 0 1380 -300 2680 -2350 5149 -5624 6774 -2267 1125
-4906 1761 -7745 1866 -307 11 -1237 11 -1545 -1z m1495 -749 c2793 -102 5342
-714 7540 -1813 1633 -815 2964 -1876 3862 -3078 671 -897 1092 -1867 1242
-2859 47 -315 56 -438 56 -830 0 -392 -9 -515 -56 -830 -242 -1602 -1186
-3125 -2734 -4411 -478 -397 -1056 -797 -1630 -1129 -2904 -1678 -6722 -2456
-10600 -2159 -3365 257 -6481 1346 -8680 3033 -389 299 -645 524 -1005 885
-362 362 -549 576 -809 925 -673 901 -1090 1863 -1240 2856 -47 315 -56 438
-56 830 0 392 9 515 56 830 242 1602 1186 3125 2734 4411 2297 1907 5726 3110
9460 3319 517 29 1362 38 1860 20z"/>
<path d="M13705 17579 c-2633 -55 -5184 -629 -7323 -1648 -2943 -1402 -4830
-3552 -5141 -5856 -40 -297 -45 -379 -46 -715 0 -340 7 -454 46 -740 347
-2529 2562 -4835 5969 -6215 1364 -553 2924 -949 4485 -1140 1254 -153 2610
-190 3850 -105 2000 138 3897 561 5585 1245 3279 1328 5465 3522 5924 5946 72
379 90 578 90 999 0 358 -8 483 -50 765 -368 2507 -2538 4771 -5894 6152 -708
291 -1513 553 -2308 752 -1160 290 -2342 465 -3607 536 -242 14 -1082 37
-1195 33 -25 -1 -198 -5 -385 -9z m1415 -298 c995 -55 1819 -150 2680 -312
2099 -394 4012 -1129 5535 -2127 1538 -1007 2610 -2219 3153 -3567 461 -1145
500 -2383 110 -3550 -662 -1981 -2522 -3736 -5203 -4907 -2739 -1197 -6119
-1661 -9445 -1297 -2614 286 -5086 1118 -6945 2337 -1103 723 -1964 1548
-2570 2462 -807 1219 -1111 2540 -889 3870 326 1956 1826 3777 4204 5103 211
117 691 361 903 459 1718 789 3662 1287 5752 1472 331 30 685 51 1175 70 178
7 1354 -3 1540 -13z"/>
<path d="M18048 15959 c-177 -20 -358 -122 -464 -262 -266 -351 -152 -849 240
-1041 213 -105 453 -97 655 21 83 49 195 161 244 244 83 141 114 323 83 479
-32 156 -98 273 -215 382 -147 136 -343 200 -543 177z m234 -94 c104 -26 187
-74 275 -161 68 -66 90 -95 122 -165 50 -107 65 -184 59 -302 -17 -310 -259
-552 -573 -574 -239 -16 -481 125 -583 338 -48 101 -62 162 -62 277 0 148 46
276 135 381 160 187 391 263 627 206z"/>
<path d="M17830 15276 l0 -386 75 0 75 0 0 160 0 160 49 0 c72 0 103 -27 209
-183 l93 -137 90 0 90 0 -23 40 c-61 106 -157 237 -195 266 l-43 33 53 15
c182 53 200 312 27 389 -40 18 -72 21 -272 25 l-228 5 0 -387z m434 225 c20
-19 26 -34 26 -67 0 -82 -44 -103 -212 -104 l-98 0 0 101 0 101 129 -4 c121
-3 131 -5 155 -27z"/>
<path d="M6133 14643 c-24 -2 -43 -6 -43 -8 0 -3 22 -46 49 -97 67 -125 135
-294 167 -414 35 -132 44 -318 20 -426 -44 -196 -180 -374 -397 -517 l-86 -57
48 -52 c136 -148 266 -366 306 -512 27 -100 25 -311 -5 -413 -28 -97 -95 -243
-156 -336 l-46 -71 48 -24 c77 -40 187 -122 260 -195 170 -169 252 -363 252
-591 0 -223 -81 -423 -232 -571 l-58 -58 57 -6 c314 -35 512 -115 668 -270
142 -142 203 -293 212 -525 6 -150 -8 -256 -53 -418 -15 -51 -24 -95 -21 -98
3 -3 56 -12 119 -19 621 -73 1137 -304 1243 -558 21 -51 19 -142 -5 -194 -83
-185 -433 -366 -968 -503 l-44 -11 101 -95 c165 -156 268 -310 323 -484 30
-97 33 -291 5 -385 -37 -125 -99 -242 -171 -322 -26 -28 -46 -55 -46 -60 0 -5
34 -31 77 -58 444 -282 568 -641 394 -1149 -30 -88 -30 -88 -9 -94 11 -3 63
-19 114 -37 145 -50 235 -106 345 -215 84 -84 101 -108 147 -200 57 -118 76
-181 93 -321 20 -166 -13 -378 -84 -533 l-35 -74 64 -11 c245 -43 463 -153
596 -301 147 -162 222 -369 235 -652 3 -76 8 -138 9 -138 13 0 190 89 289 145
633 358 1273 965 1902 1800 456 606 879 1303 1098 1810 168 388 280 716 545
1595 145 482 261 838 334 1029 20 52 34 96 32 99 -7 6 -128 -239 -223 -453
-111 -250 -327 -792 -452 -1136 -165 -456 -240 -635 -420 -1004 -414 -848
-920 -1591 -1446 -2122 -175 -176 -182 -183 -221 -183 -22 0 -60 10 -84 22
-41 21 -50 32 -102 138 -69 137 -99 245 -99 356 -1 127 7 144 133 279 796 855
1313 1579 1680 2350 139 291 197 431 292 698 90 254 128 385 116 407 -13 25
-44 42 -63 34 -8 -3 -45 -65 -82 -137 -481 -940 -806 -1464 -1208 -1951 -139
-168 -486 -511 -645 -638 -73 -59 -194 -148 -269 -198 -132 -90 -136 -92 -180
-86 -59 8 -108 32 -147 72 -30 31 -38 50 -127 300 -33 91 -45 180 -35 248 7
45 11 49 134 148 916 736 1485 1307 1890 1897 40 57 72 108 72 113 0 39 -197
-69 -360 -199 -41 -33 -142 -120 -225 -194 -309 -275 -431 -368 -591 -448 -82
-40 -208 -81 -252 -81 -21 0 -23 3 -17 28 34 131 45 326 24 452 -26 163 -112
348 -219 470 -43 51 -49 64 -56 118 -6 61 -6 62 22 73 17 7 136 15 294 20 519
15 942 74 1425 196 422 106 827 258 1237 464 112 56 186 88 198 84 29 -9 46
-60 30 -93 -8 -15 -14 -36 -15 -47 -1 -11 -19 -74 -39 -140 -223 -719 -310
-1623 -215 -2245 23 -152 74 -360 114 -465 69 -181 191 -375 296 -469 116
-105 286 -102 404 5 183 168 331 469 399 810 44 225 51 313 50 674 0 286 -4
369 -23 525 -50 424 -135 830 -247 1194 -14 43 -23 81 -21 83 15 14 188 -503
367 -1097 231 -767 307 -999 435 -1325 207 -528 456 -989 860 -1590 727 -1080
1497 -1863 2250 -2290 99 -57 276 -145 289 -145 2 0 6 62 9 138 15 344 129
591 350 758 113 86 308 164 481 195 l64 11 -35 74 c-123 268 -120 592 9 854
46 93 63 116 147 200 110 109 200 165 345 215 51 18 103 34 114 37 21 6 21 6
-9 95 -84 242 -100 470 -43 640 64 191 215 367 437 508 42 26 77 53 77 58 0 5
-20 32 -45 60 -131 145 -204 351 -192 547 13 224 126 433 348 644 99 94 100
95 72 102 -15 4 -96 26 -179 50 -437 125 -729 291 -804 457 -24 52 -26 143 -5
194 78 186 388 369 810 478 149 38 272 61 433 80 63 7 116 16 119 19 3 3 -6
47 -21 98 -45 162 -59 268 -53 418 9 232 70 383 212 525 156 155 354 235 669
270 l60 7 -52 46 c-230 210 -309 593 -184 891 78 186 261 378 454 477 l48 24
-46 71 c-62 95 -128 237 -156 334 -30 104 -32 314 -5 415 40 146 170 364 306
512 l48 52 -86 57 c-217 143 -353 321 -397 518 -26 114 -15 303 24 441 36 124
105 291 168 408 25 46 42 87 39 91 -4 3 -181 6 -393 6 -412 0 -523 -8 -862
-60 -521 -81 -1056 -234 -1585 -453 -1017 -423 -2076 -1129 -2904 -1937 -317
-309 -540 -577 -1201 -1440 -424 -553 -599 -770 -775 -960 l-46 -50 5 88 c7
102 33 224 81 387 116 391 111 560 -28 822 l-40 77 37 73 c64 127 59 219 -15
317 l-40 52 41 96 c52 122 120 256 280 558 260 489 349 681 426 909 111 335
114 574 9 792 -69 143 -191 207 -420 221 -152 9 -245 -24 -327 -115 -46 -51
-72 -101 -92 -179 -18 -68 -21 -200 -6 -253 27 -96 117 -182 205 -196 99 -14
223 55 245 137 21 79 -39 158 -131 173 -22 3 -49 16 -60 27 -18 18 -21 31 -17
93 2 53 9 79 25 102 53 74 181 92 285 41 72 -35 149 -119 180 -195 20 -51 23
-73 22 -202 0 -116 -5 -164 -23 -239 -79 -319 -253 -706 -635 -1408 l-159
-291 -51 -4 c-28 -2 -108 -2 -177 0 l-127 5 -158 291 c-475 873 -645 1288
-661 1612 -9 185 21 278 116 367 70 66 129 91 211 91 123 0 182 -51 188 -165
5 -83 -6 -105 -61 -120 -97 -26 -136 -57 -150 -120 -17 -72 50 -156 149 -185
71 -20 126 -13 187 26 84 53 127 145 127 272 0 219 -101 373 -276 424 -46 13
-80 15 -159 11 -229 -14 -351 -78 -420 -221 -105 -218 -102 -457 9 -792 77
-228 166 -420 426 -909 160 -302 228 -436 280 -558 l41 -96 -40 -52 c-74 -98
-78 -189 -15 -318 l36 -74 -41 -78 c-126 -236 -139 -416 -51 -729 85 -304 110
-420 109 -520 l0 -45 -50 55 c-188 207 -355 414 -769 955 -663 866 -900 1149
-1226 1465 -374 363 -852 748 -1309 1056 -1040 701 -2088 1138 -3125 1305
-310 50 -460 61 -840 64 -201 1 -384 1 -407 -2z m1047 -859 c94 -30 192 -134
220 -234 17 -59 12 -155 -11 -215 -27 -73 -104 -156 -177 -192 -50 -24 -69
-28 -147 -28 -76 0 -99 4 -146 26 -69 33 -129 91 -166 161 -25 48 -28 63 -28
153 0 119 20 171 97 248 95 95 223 124 358 81z m14268 -6 c65 -24 148 -103
183 -173 21 -43 24 -64 24 -150 0 -90 -3 -105 -28 -153 -37 -70 -97 -128 -166
-161 -77 -36 -210 -37 -288 -2 -72 32 -153 120 -182 196 -34 90 -27 197 19
283 85 161 261 225 438 160z m-12760 -114 c228 -46 431 -199 536 -404 64 -124
88 -218 88 -355 1 -167 -36 -297 -121 -427 -149 -227 -388 -358 -656 -358
-353 0 -649 223 -750 565 -33 111 -38 279 -12 387 102 415 506 676 915 592z
m11310 0 c300 -61 535 -290 609 -592 26 -108 21 -276 -12 -387 -55 -187 -164
-335 -325 -439 -132 -86 -267 -126 -425 -126 -213 0 -404 80 -555 232 -149
151 -221 327 -222 543 -1 225 80 416 240 567 190 179 442 253 690 202z
m-10353 -337 c772 -302 1577 -883 2318 -1675 414 -442 701 -793 1307 -1597
161 -214 340 -450 398 -523 57 -73 103 -135 101 -136 -12 -11 -343 -172 -444
-216 -618 -270 -1281 -440 -2025 -519 -359 -39 -992 -66 -1340 -59 -232 6
-289 16 -382 71 -83 48 -83 49 -107 282 -12 116 -21 218 -21 228 0 12 18 26
53 42 168 77 445 77 883 0 96 -17 360 -42 850 -80 657 -52 714 -55 748 -41 28
12 36 21 36 41 0 30 -33 47 -260 137 -502 199 -987 323 -2175 553 -275 54
-501 98 -502 99 -9 8 -162 763 -158 777 3 10 15 21 27 25 44 14 342 -26 566
-76 454 -102 813 -233 1700 -622 414 -181 479 -212 716 -346 355 -199 549
-280 745 -309 94 -14 105 -14 119 1 14 14 12 19 -29 57 -24 22 -98 85 -164
138 -712 578 -1636 1070 -2805 1494 -282 102 -765 261 -1057 347 l-211 63 -7
58 c-16 141 41 301 118 334 18 7 86 23 151 34 119 22 205 51 227 77 18 21 53
17 209 -25 480 -130 961 -345 1450 -649 265 -164 514 -337 1035 -716 393 -286
521 -376 714 -506 310 -206 601 -380 639 -380 27 0 38 24 26 55 -16 41 -563
561 -909 865 -839 735 -1584 1250 -2406 1661 -129 65 -241 124 -248 132 -6 9
-15 31 -18 50 -4 29 1 46 31 95 57 91 70 153 69 322 0 116 -5 170 -26 270 -14
69 -33 145 -41 169 -12 32 -13 42 -3 38 6 -3 53 -21 102 -40z m9189 1 c-8 -24
-27 -99 -41 -168 -21 -100 -26 -154 -26 -270 -1 -169 12 -231 69 -322 30 -49
35 -66 31 -95 -3 -19 -12 -41 -18 -50 -7 -8 -119 -67 -248 -132 -399 -200
-676 -362 -1071 -626 -677 -453 -1284 -956 -2057 -1706 -156 -150 -193 -191
-193 -213 0 -33 23 -43 62 -28 108 41 693 421 1091 710 767 556 911 658 1175
826 542 344 1032 569 1542 707 156 42 191 46 209 25 22 -26 107 -55 222 -76
159 -28 174 -35 209 -86 55 -79 77 -178 65 -283 l-7 -58 -211 -63 c-1515 -449
-2717 -995 -3582 -1625 -133 -96 -375 -290 -444 -354 -41 -38 -43 -43 -29 -57
14 -15 25 -15 119 -1 197 30 373 102 745 310 104 57 225 123 269 145 103 51
749 334 1015 445 654 271 1134 407 1602 453 83 8 114 1 121 -28 5 -16 -147
-767 -156 -774 -1 -1 -227 -45 -502 -99 -1182 -229 -1674 -354 -2175 -553
-227 -90 -260 -107 -260 -137 0 -20 8 -29 36 -41 34 -14 91 -11 748 41 490 38
754 63 850 80 340 60 600 74 756 40 98 -21 180 -58 180 -82 0 -10 -9 -112 -21
-228 -24 -233 -25 -234 -107 -282 -93 -55 -150 -65 -382 -71 -346 -7 -989 21
-1335 58 -755 82 -1410 250 -2030 520 -102 45 -432 205 -444 216 -2 2 50 72
116 156 66 84 245 319 398 523 440 585 716 931 990 1245 724 828 1437 1420
2165 1798 175 91 519 245 562 251 4 1 0 -18 -8 -41z m-11529 -949 c216 -103
265 -390 95 -559 -74 -75 -127 -95 -245 -95 -89 0 -106 3 -150 27 -113 59
-184 165 -193 288 -11 153 72 286 216 347 76 32 201 29 277 -8z m14065 0 c68
-32 133 -97 168 -169 23 -47 27 -67 27 -145 0 -78 -4 -98 -27 -145 -33 -68
-97 -134 -163 -169 -44 -23 -61 -26 -150 -26 -121 0 -172 20 -252 101 -148
152 -122 404 54 526 66 45 116 58 208 55 62 -2 93 -8 135 -28z m-7282 -964
c33 -39 29 -80 -12 -121 -41 -41 -73 -43 -114 -9 -36 30 -47 68 -31 107 25 61
112 74 157 23z m321 20 c34 -17 55 -62 45 -98 -8 -35 -58 -77 -91 -77 -35 0
-93 60 -93 97 0 71 73 112 139 78z m-6745 -384 c75 -37 128 -92 164 -170 33
-71 37 -191 9 -260 -45 -110 -134 -188 -246 -217 -81 -20 -148 -13 -227 25
-100 48 -162 124 -190 231 -73 285 224 522 490 391z m13360 0 c120 -59 190
-170 190 -301 1 -102 -23 -166 -87 -237 -92 -100 -215 -140 -338 -109 -170 44
-285 206 -265 375 29 242 282 379 500 272z m-6963 -221 c18 -10 18 -12 -6 -48
-75 -114 -82 -278 -19 -452 13 -35 21 -66 19 -68 -9 -9 -105 103 -133 156 -40
75 -54 131 -54 213 0 78 28 152 70 186 29 25 89 31 123 13z m409 -218 c14 -11
33 -42 43 -73 16 -46 17 -64 9 -117 -21 -125 -95 -239 -203 -311 -34 -23 -64
-40 -66 -37 -2 2 10 24 27 49 65 97 110 228 110 322 0 46 -16 124 -34 167 -15
33 69 33 114 0z m-6325 -711 c181 -86 253 -288 165 -467 -36 -73 -91 -126
-169 -163 -47 -22 -70 -26 -141 -26 -71 0 -94 4 -141 26 -158 74 -240 245
-195 405 61 213 285 318 481 225z m12380 0 c266 -126 271 -493 7 -623 -59 -29
-76 -33 -152 -33 -71 0 -94 4 -141 26 -79 37 -133 90 -171 167 -30 60 -33 75
-33 152 1 72 5 94 28 142 87 178 288 252 462 169z m-5758 -805 c219 -109 373
-177 568 -251 673 -254 1330 -381 2085 -404 158 -5 277 -13 294 -20 28 -11 28
-12 22 -73 -7 -55 -13 -67 -55 -115 -105 -118 -194 -308 -221 -474 -20 -125
-9 -320 25 -451 6 -25 4 -28 -17 -28 -44 0 -170 41 -252 81 -159 79 -286 175
-583 441 -177 158 -270 233 -373 302 -121 81 -220 125 -220 98 0 -5 27 -48 61
-98 408 -598 969 -1163 1901 -1912 123 -99 127 -103 134 -148 10 -68 -2 -157
-35 -248 -89 -250 -97 -269 -127 -300 -39 -40 -88 -64 -147 -72 -44 -6 -48 -4
-180 86 -363 246 -710 575 -1019 967 -339 429 -624 894 -1042 1703 -70 134
-132 248 -139 252 -19 12 -26 10 -53 -17 -29 -30 -31 -21 43 -250 177 -546
444 -1112 759 -1610 323 -512 691 -980 1238 -1573 87 -95 146 -167 154 -190
20 -56 16 -195 -8 -287 -11 -44 -46 -132 -78 -195 -52 -106 -61 -117 -102
-137 -24 -13 -62 -23 -84 -23 -38 0 -46 7 -221 183 -518 522 -1008 1236 -1424
2077 -180 363 -277 593 -443 1050 -263 726 -649 1622 -680 1579 -8 -11 -9 -10
-4 4 3 10 -1 29 -10 42 -25 39 -2 103 38 105 4 0 92 -42 195 -94z m-547 -576
c16 -16 20 -31 18 -66 -3 -45 -2 -46 32 -57 46 -16 54 -56 16 -81 -44 -28 -28
-76 25 -76 29 0 59 -23 59 -45 0 -7 -11 -22 -25 -33 -46 -36 -29 -82 29 -82
52 0 61 -48 15 -80 -48 -35 -34 -70 33 -84 16 -4 30 -15 34 -28 5 -17 -1 -28
-30 -53 -20 -16 -36 -34 -36 -39 0 -17 33 -46 51 -46 21 0 43 -35 35 -55 -3
-8 -21 -21 -41 -29 -27 -12 -35 -21 -35 -41 0 -20 8 -29 34 -40 18 -8 36 -21
40 -30 8 -23 -11 -55 -34 -55 -27 0 -52 -38 -39 -62 5 -10 16 -18 23 -18 8 0
24 -8 36 -18 31 -25 19 -57 -25 -72 -29 -10 -35 -16 -35 -41 0 -19 6 -31 18
-35 55 -17 73 -45 48 -73 -11 -12 -27 -21 -37 -21 -21 0 -41 -32 -34 -53 3 -7
20 -20 38 -28 26 -11 32 -20 32 -43 0 -24 -5 -31 -30 -38 -62 -16 -65 -66 -5
-86 24 -9 30 -17 30 -41 0 -26 -6 -33 -36 -46 -30 -12 -35 -19 -32 -42 2 -18
10 -29 23 -31 69 -13 56 -92 -14 -92 -11 0 -25 -9 -31 -21 -10 -17 -6 -25 26
-54 34 -31 36 -37 26 -59 -8 -17 -20 -26 -43 -28 -46 -4 -58 -29 -35 -69 l19
-32 -27 -19 c-16 -12 -26 -29 -26 -44 0 -41 -29 -85 -67 -100 -65 -28 -135 16
-149 92 -3 19 -16 41 -27 49 -19 13 -19 17 -7 54 16 48 3 71 -39 71 -56 0 -68
46 -21 80 19 13 30 30 30 45 0 23 -5 26 -62 39 -38 8 -47 44 -18 68 12 10 28
18 35 18 12 0 25 21 25 41 0 5 -18 20 -41 34 -50 32 -50 63 -2 84 35 16 52 46
34 64 -6 6 -26 16 -43 21 -53 17 -49 80 5 88 28 4 31 56 5 69 -10 5 -26 13
-35 18 -29 14 -22 53 12 71 60 30 62 65 5 87 -32 13 -40 21 -40 42 0 20 9 31
38 46 48 26 49 54 3 77 -19 10 -39 24 -43 33 -12 20 8 55 31 55 25 0 43 24 39
52 -2 15 -13 25 -36 32 -52 14 -54 86 -3 86 46 0 56 62 14 82 -53 25 -36 88
23 88 26 0 44 24 37 49 -2 9 -17 24 -34 33 -45 26 -34 78 17 78 59 0 73 39 29
80 -43 40 -27 80 32 80 22 0 36 6 43 19 10 20 4 51 -11 51 -15 0 -40 47 -33
64 3 9 20 20 38 24 30 8 31 10 31 61 0 40 4 56 19 67 27 20 52 18 76 -6z
m-4115 -204 c209 -71 370 -213 465 -410 55 -113 73 -198 73 -336 0 -222 -81
-410 -242 -563 -394 -371 -1018 -248 -1246 246 -86 186 -91 406 -15 610 66
175 243 355 425 429 53 22 85 32 170 52 11 3 81 4 155 2 116 -3 146 -7 215
-30z m8630 6 c136 -45 237 -105 329 -198 133 -133 204 -282 225 -468 54 -477
-345 -895 -824 -862 -203 13 -377 96 -518 245 -121 128 -190 280 -210 461 -42
379 227 749 607 836 89 20 312 12 391 -14z m-10010 -1076 c70 -32 140 -102
173 -174 22 -48 27 -71 27 -142 0 -104 -29 -174 -100 -245 -71 -71 -141 -100
-245 -99 -73 0 -93 4 -144 29 -107 51 -173 137 -198 259 -36 168 87 351 266
397 54 14 162 2 221 -25z m11219 -1 c106 -50 176 -143 198 -263 22 -117 -37
-259 -135 -330 -71 -51 -123 -67 -212 -67 -99 1 -171 31 -240 100 -71 71 -100
141 -100 245 0 103 29 174 98 244 106 106 259 133 391 71z m-10837 -1055 c69
-34 128 -95 164 -168 20 -39 24 -63 24 -142 0 -85 -3 -101 -29 -153 -36 -71
-99 -130 -174 -165 -48 -23 -70 -27 -142 -26 -104 1 -157 22 -231 91 -79 74
-111 149 -110 259 1 155 114 295 268 334 65 16 161 4 230 -30z m10464 4 c76
-35 149 -112 179 -192 31 -80 25 -205 -12 -277 -32 -62 -112 -139 -175 -167
-74 -33 -200 -32 -275 4 -76 35 -142 98 -175 167 -25 49 -28 67 -28 151 0 79
4 103 23 141 89 180 284 253 463 173z m-9993 -978 c70 -36 128 -95 161 -165
22 -47 26 -70 26 -146 0 -76 -4 -99 -26 -145 -33 -70 -99 -136 -169 -169 -47
-22 -68 -26 -150 -26 -84 0 -101 3 -148 28 -121 63 -183 161 -190 294 -6 131
42 234 143 303 73 50 110 60 210 57 75 -3 99 -8 143 -31z m9527 4 c64 -31 134
-101 165 -165 22 -43 25 -64 25 -150 0 -95 -2 -103 -34 -163 -36 -67 -86 -114
-161 -153 -38 -20 -60 -24 -140 -24 -82 0 -103 4 -150 26 -70 33 -136 99 -169
169 -22 47 -26 68 -26 150 0 84 3 101 28 148 45 86 125 153 217 183 14 5 63 7
110 6 67 -2 96 -7 135 -27z m-9090 -921 c69 -26 151 -103 185 -174 34 -74 39
-191 10 -267 -28 -76 -104 -159 -178 -195 -50 -24 -69 -28 -147 -28 -78 0 -98
4 -145 27 -68 34 -134 97 -168 163 -37 72 -43 197 -13 276 69 182 268 268 456
198z m8612 -1 c69 -25 148 -100 183 -173 36 -73 40 -189 9 -270 -28 -75 -102
-155 -178 -192 -49 -24 -68 -28 -146 -28 -78 0 -97 4 -147 28 -74 36 -150 119
-178 195 -18 46 -21 72 -18 137 6 98 33 161 99 226 103 104 233 131 376 77z"/>
<path d="M8410 13362 c-237 -62 -393 -304 -350 -542 32 -177 158 -323 330
-380 54 -18 82 -21 165 -18 91 3 107 7 177 40 252 120 351 395 233 647 -98
206 -329 312 -555 253z"/>
<path d="M19720 13362 c-175 -46 -308 -190 -346 -376 -50 -239 99 -477 345
-552 68 -21 200 -18 274 7 229 76 371 314 324 542 -58 283 -322 451 -597 379z"/>
<path d="M9709 8026 c-276 -97 -401 -403 -272 -666 95 -196 313 -303 525 -259
366 76 510 526 256 795 -102 108 -209 154 -356 154 -65 0 -104 -6 -153 -24z"/>
<path d="M18368 8031 c-216 -69 -365 -303 -331 -519 23 -147 95 -261 211 -339
240 -162 568 -73 695 187 130 265 0 576 -280 669 -81 27 -214 28 -295 2z"/>
</g>
</svg>
