<?xml version="1.0" standalone="no"?>
<!DOCTYPE svg PUBLIC "-//W3C//DTD SVG 20010904//EN"
 "http://www.w3.org/TR/2001/REC-SVG-20010904/DTD/svg10.dtd">
<svg version="1.0" xmlns="http://www.w3.org/2000/svg"
 width="2126.000000pt" height="1628.000000pt" viewBox="0 0 2126.000000 1628.000000"
 preserveAspectRatio="xMidYMid meet">

<g transform="translate(0.000000,1628.000000) scale(0.100000,-0.100000)"
fill="#000000" stroke="none">
<path d="M10060 16264 c-36 -2 -159 -8 -275 -14 -1976 -100 -3892 -577 -5500
-1371 -2033 -1003 -3462 -2450 -4014 -4064 -192 -560 -271 -1064 -258 -1654 5
-265 20 -428 57 -656 145 -871 540 -1721 1163 -2498 300 -374 715 -790 1122
-1124 1293 -1060 3055 -1862 5015 -2282 2106 -450 4416 -451 6515 -1 1969 422
3725 1221 5020 2283 292 240 644 576 882 842 760 848 1242 1803 1402 2780 38
231 53 392 58 656 12 582 -61 1068 -246 1619 -491 1463 -1677 2775 -3412 3772
-179 103 -517 283 -651 347 -46 21 -132 62 -193 91 -685 325 -1529 621 -2364
830 -912 228 -1757 356 -2801 426 -218 14 -1336 28 -1520 18z m1400 -574 c96
-5 265 -17 375 -25 2491 -192 4799 -987 6440 -2218 835 -626 1480 -1350 1884
-2117 273 -516 427 -996 502 -1565 19 -144 23 -217 23 -485 1 -331 -5 -419
-50 -690 -240 -1469 -1278 -2848 -2929 -3895 -1986 -1259 -4668 -1931 -7444
-1864 -2983 71 -5713 968 -7571 2488 -272 222 -607 543 -816 781 -677 771
-1098 1605 -1244 2464 -48 286 -55 377 -54 716 0 347 15 505 75 805 334 1677
1702 3211 3797 4259 1609 805 3498 1266 5557 1356 243 11 1226 4 1455 -10z"/>
<path d="M9970 15429 c-2262 -101 -4373 -690 -6020 -1677 -1181 -708 -2072
-1596 -2568 -2559 -204 -398 -326 -739 -406 -1134 -242 -1201 65 -2395 893
-3479 292 -382 686 -781 1104 -1118 1491 -1203 3637 -2019 5982 -2276 1237
-136 2459 -122 3680 40 2222 295 4249 1098 5660 2243 286 232 598 527 820 776
490 549 857 1173 1054 1790 385 1202 199 2448 -534 3575 -1010 1554 -2990
2790 -5455 3405 -942 235 -1880 368 -2920 415 -257 11 -1029 11 -1290 -1z
m1470 -218 c1356 -84 2529 -302 3665 -682 1781 -597 3216 -1534 4110 -2684
323 -415 580 -889 735 -1355 152 -455 207 -817 197 -1305 -6 -270 -17 -390
-58 -610 -115 -625 -398 -1248 -826 -1820 -547 -733 -1310 -1374 -2303 -1937
-122 -69 -425 -225 -590 -303 -1364 -646 -2954 -1047 -4635 -1169 -331 -24
-386 -27 -750 -35 -1255 -29 -2466 91 -3635 360 -3222 742 -5593 2545 -6125
4659 -79 315 -105 514 -112 860 -7 383 19 637 102 976 193 788 622 1522 1284
2196 101 104 236 235 300 292 1134 1019 2718 1788 4550 2210 863 199 1731 314
2676 356 245 11 1188 4 1415 -9z"/>
<path d="M13490 14215 c-228 -52 -389 -239 -406 -475 -25 -322 270 -592 593
-542 214 34 383 194 428 407 18 87 18 122 1 207 -30 137 -102 246 -214 321
-120 82 -269 112 -402 82z m202 -56 c89 -19 158 -58 229 -128 148 -148 179
-343 85 -535 -28 -57 -112 -146 -172 -183 -103 -62 -249 -79 -367 -43 -273 85
-406 398 -276 652 28 55 122 153 179 186 90 53 217 73 322 51z"/>
<path d="M13370 13705 l0 -285 60 0 60 0 0 120 0 120 38 0 c53 0 73 -18 153
-136 l69 -104 65 0 c36 0 65 3 65 6 0 20 -118 189 -151 218 l-40 33 32 7 c78
15 126 87 116 173 -6 54 -30 89 -77 114 -30 17 -59 19 -212 19 l-178 0 0 -285z
m313 184 c30 -16 37 -28 37 -65 0 -53 -28 -68 -136 -72 l-94 -4 0 76 0 76 86
0 c47 0 95 -5 107 -11z"/>
<path d="M4583 13234 c-7 -3 8 -46 47 -127 148 -308 168 -521 67 -711 -42 -80
-142 -185 -231 -243 -39 -26 -73 -48 -75 -50 -2 -1 23 -35 56 -75 268 -328
290 -580 78 -924 l-26 -42 78 -48 c97 -60 206 -169 256 -254 60 -103 82 -186
81 -310 -2 -170 -54 -302 -166 -416 l-50 -52 63 -7 c335 -35 564 -204 625
-461 24 -102 14 -308 -20 -429 -14 -49 -24 -90 -23 -92 2 -1 45 -7 97 -13 224
-27 491 -100 641 -176 371 -186 396 -400 69 -581 -83 -46 -271 -118 -400 -153
-63 -17 -121 -33 -129 -36 -9 -3 17 -35 73 -92 100 -101 147 -163 187 -247
100 -212 72 -437 -77 -620 -25 -31 -44 -58 -42 -59 2 -1 37 -24 78 -51 114
-75 228 -194 272 -285 51 -107 62 -162 55 -299 -4 -90 -12 -139 -36 -219 -17
-57 -29 -107 -26 -112 3 -5 20 -12 38 -15 17 -4 59 -19 92 -32 371 -154 503
-555 321 -975 -6 -13 -2 -18 21 -23 213 -44 327 -98 439 -210 117 -117 169
-232 194 -429 5 -44 10 -105 10 -134 l0 -54 123 65 c318 165 592 373 907 687
364 363 726 828 1050 1349 350 565 494 909 780 1861 154 513 265 849 277 837
2 -2 -10 -51 -26 -108 -62 -214 -115 -485 -148 -759 -21 -180 -25 -645 -5
-790 42 -314 130 -551 261 -707 73 -88 125 -117 206 -117 79 1 128 26 198 105
267 300 358 865 256 1597 -33 240 -120 628 -174 781 -30 86 -7 50 30 -46 56
-147 122 -349 240 -743 330 -1098 488 -1455 953 -2155 582 -874 1216 -1501
1832 -1810 l90 -45 0 53 c0 71 17 201 36 273 46 177 174 335 335 412 72 36
166 65 272 87 23 5 27 10 21 23 -105 244 -109 474 -10 677 69 140 211 259 377
315 43 14 81 29 84 32 3 3 -8 52 -26 109 -24 81 -32 129 -36 220 -7 137 4 192
55 298 44 92 161 214 272 286 41 27 76 50 78 51 2 1 -17 28 -42 59 -149 183
-177 408 -77 620 40 84 87 146 187 247 l86 87 -58 16 c-618 168 -845 381 -641
602 143 155 489 288 867 333 52 6 95 12 97 13 1 2 -9 43 -23 92 -34 121 -44
327 -20 429 61 257 290 426 625 461 l63 7 -50 52 c-112 115 -164 246 -165 416
-1 74 4 123 17 165 50 167 163 305 335 409 l61 38 -25 41 c-159 258 -183 468
-81 684 41 86 78 142 159 241 33 40 58 74 56 75 -2 2 -36 24 -75 50 -89 58
-189 163 -231 243 -101 190 -81 403 67 711 l59 123 -25 6 c-14 4 -164 4 -332
1 -333 -6 -482 -21 -772 -77 -1043 -204 -2146 -800 -3089 -1671 -283 -261
-425 -430 -1141 -1360 -185 -240 -328 -415 -414 -504 l-57 -60 7 75 c6 70 28
165 90 390 21 76 27 117 27 205 0 123 -17 189 -78 301 l-33 60 24 39 c52 86
50 174 -5 250 l-30 42 33 74 c17 41 76 160 130 264 367 708 427 849 457 1085
27 208 -43 398 -171 462 -64 33 -195 53 -273 44 -109 -14 -201 -93 -232 -201
-21 -71 -21 -182 0 -231 46 -110 156 -154 255 -101 58 31 86 83 70 131 -14 43
-35 61 -86 75 -60 16 -78 40 -71 97 9 84 56 124 147 124 42 0 67 -7 106 -29
224 -129 183 -463 -134 -1096 -79 -158 -327 -621 -344 -642 -7 -9 -47 -13
-134 -13 -117 0 -124 1 -138 23 -31 48 -231 421 -322 601 -333 657 -378 996
-151 1126 96 55 210 34 243 -45 31 -76 10 -128 -62 -146 -76 -20 -110 -83 -77
-146 24 -45 90 -83 145 -83 113 0 190 93 190 231 0 137 -51 236 -152 293 -51
29 -62 31 -150 31 -217 -1 -316 -67 -373 -250 -32 -104 -29 -245 7 -390 51
-202 107 -323 432 -950 54 -104 113 -223 130 -264 l33 -74 -30 -42 c-55 -76
-57 -164 -5 -250 l24 -39 -33 -60 c-61 -112 -78 -178 -78 -301 0 -88 6 -129
27 -205 62 -225 84 -320 90 -390 l7 -75 -71 75 c-78 82 -268 316 -455 560
-635 829 -812 1037 -1108 1308 -958 878 -2053 1462 -3112 1661 -264 50 -407
63 -740 67 -176 2 -325 1 -332 -2z m800 -640 c64 -22 130 -82 157 -146 18 -42
21 -65 18 -118 -6 -75 -23 -115 -75 -166 -102 -102 -264 -102 -366 0 -52 51
-69 91 -75 166 -3 53 0 76 17 116 55 128 195 192 324 148z m10715 -8 c163 -84
203 -290 80 -417 -104 -107 -267 -109 -372 -4 -168 168 -38 457 199 441 34 -2
75 -11 93 -20z m-9546 -92 c156 -37 303 -158 378 -310 166 -337 -37 -751 -406
-829 -87 -19 -151 -18 -239 0 -214 45 -396 219 -450 430 -19 76 -19 214 0 289
20 76 77 184 127 241 56 64 153 130 234 161 116 44 228 49 356 18z m8518 -11
c141 -45 264 -150 334 -283 46 -87 66 -170 66 -272 0 -164 -52 -290 -170 -408
-86 -87 -162 -131 -276 -160 -307 -79 -624 113 -704 425 -114 447 310 841 750
698z m-7817 -239 c530 -207 1114 -622 1639 -1163 307 -317 586 -653 1037
-1250 155 -205 306 -403 335 -440 29 -36 56 -72 60 -79 5 -9 -40 -36 -166 -96
-731 -353 -1494 -506 -2534 -506 -343 0 -370 4 -454 61 l-47 32 -18 168 c-10
92 -15 174 -12 182 3 7 38 25 79 38 66 22 89 24 238 23 131 -1 196 -7 315 -28
145 -26 1044 -105 1193 -106 124 0 136 36 28 85 -206 94 -520 195 -870 280
-189 46 -832 179 -1167 240 l-96 18 -61 285 c-45 210 -59 290 -51 303 12 23
55 24 194 4 308 -44 608 -131 1014 -295 328 -132 827 -355 965 -432 243 -134
391 -207 483 -237 98 -33 235 -51 247 -33 4 6 -42 51 -106 105 -684 571 -1627
1025 -2947 1419 -137 41 -145 45 -153 73 -19 66 10 191 57 240 26 28 42 34
128 50 59 10 121 29 155 46 l57 29 130 -35 c445 -116 876 -329 1395 -688 80
-55 300 -213 490 -350 518 -375 950 -654 996 -645 11 2 20 10 22 18 2 14 -209
230 -398 406 -727 676 -1397 1158 -2092 1505 -162 81 -189 98 -198 123 -8 22
-6 36 6 60 9 17 26 49 38 71 19 36 21 55 20 205 -1 144 -4 177 -26 258 -14 50
-24 92 -22 92 2 0 46 -16 97 -36z m6860 -56 c-18 -68 -26 -130 -30 -230 -6
-152 3 -210 43 -271 28 -43 34 -88 13 -113 -7 -9 -97 -58 -201 -110 -768 -384
-1521 -946 -2321 -1732 -153 -151 -175 -182 -133 -190 39 -8 437 243 792 499
737 531 841 603 1099 757 336 200 666 342 990 427 l130 35 57 -29 c34 -17 96
-36 155 -46 86 -16 102 -22 128 -50 47 -49 76 -174 57 -240 -8 -28 -16 -32
-153 -73 -1326 -397 -2262 -847 -2947 -1419 -86 -72 -111 -98 -102 -107 11
-14 15 -14 125 5 132 22 249 73 543 237 165 91 268 139 677 317 640 278 1019
399 1395 445 121 14 148 13 159 -8 7 -13 -7 -97 -50 -297 -33 -154 -63 -283
-67 -286 -4 -4 -173 -40 -377 -79 -946 -183 -1390 -301 -1752 -466 -105 -47
-94 -84 24 -84 147 0 1055 81 1198 106 121 22 182 27 320 28 158 0 175 -1 240
-25 l70 -25 -3 -85 c-1 -46 -8 -127 -15 -179 l-12 -94 -43 -33 c-84 -64 -108
-66 -566 -60 -416 5 -600 17 -904 57 -431 57 -824 157 -1207 307 -145 57 -485
217 -485 228 0 4 26 39 59 78 32 40 186 241 341 447 362 479 506 660 734 920
561 643 1119 1098 1691 1380 119 59 326 148 346 150 4 0 -5 -42 -18 -92z
m-8636 -648 c130 -57 190 -221 127 -348 -44 -88 -143 -152 -234 -152 -53 0
-127 30 -172 70 -125 109 -115 309 19 404 80 56 170 65 260 26z m10542 4 c96
-40 151 -117 159 -223 6 -87 -22 -155 -86 -211 -45 -40 -119 -70 -172 -70 -51
0 -126 30 -169 67 -129 110 -119 312 20 409 76 52 165 62 248 28z m-5456 -721
c46 -53 0 -136 -67 -119 -30 7 -59 56 -49 83 12 34 36 53 68 53 18 0 39 -8 48
-17z m262 -3 c26 -29 24 -79 -4 -102 -34 -27 -65 -23 -95 13 -32 38 -33 53 -1
84 30 31 75 33 100 5z m-5080 -274 c136 -64 190 -225 120 -355 -47 -87 -134
-139 -230 -139 -95 0 -182 52 -230 139 -25 45 -30 65 -29 119 1 75 18 121 65
175 73 83 203 109 304 61z m10020 0 c55 -25 109 -80 133 -135 8 -20 15 -65 16
-101 0 -53 -5 -75 -29 -119 -47 -87 -134 -139 -230 -139 -96 0 -183 52 -230
139 -53 98 -36 217 43 303 69 74 200 98 297 52z m-5209 -169 c3 -2 -8 -28 -23
-58 -25 -48 -28 -63 -28 -154 0 -77 5 -113 22 -157 20 -54 20 -57 3 -48 -24
13 -84 96 -104 145 -57 137 -5 297 93 281 18 -3 35 -7 37 -9z m309 -173 c58
-63 38 -196 -46 -297 -30 -36 -117 -103 -124 -95 -2 2 10 26 27 53 52 84 70
149 65 240 -3 44 -8 90 -12 103 -7 20 -4 22 29 22 27 0 44 -7 61 -26z m-4786
-510 c221 -65 245 -375 37 -481 -132 -68 -288 -8 -354 135 -47 104 -13 231 83
304 76 57 143 69 234 42z m9332 -21 c124 -67 172 -219 110 -341 -125 -245
-491 -160 -491 113 0 202 205 324 381 228z m-5024 -549 c16 -25 16 -28 0 -56
-9 -16 -14 -35 -10 -40 4 -7 1 -8 -7 -3 -9 6 -10 1 -5 -16 4 -17 4 -20 -3 -10
-12 17 -44 -43 -155 -294 -98 -222 -196 -468 -317 -795 -194 -524 -305 -774
-512 -1149 -274 -495 -587 -927 -908 -1253 -148 -150 -158 -156 -235 -124 -28
12 -40 29 -73 98 -68 143 -92 255 -73 341 10 42 30 69 159 210 755 828 1168
1486 1443 2299 59 173 68 210 59 228 -23 42 -52 22 -99 -70 -103 -201 -334
-626 -411 -755 -366 -617 -757 -1059 -1197 -1353 -51 -34 -103 -62 -115 -62
-33 1 -99 33 -125 61 -25 28 -98 221 -114 303 -7 30 -9 74 -5 98 6 40 13 49
89 108 628 496 1126 993 1413 1410 83 121 82 129 -14 81 -79 -40 -190 -125
-367 -281 -236 -208 -350 -292 -461 -339 -50 -21 -165 -53 -171 -48 -1 2 5 41
13 88 42 219 -18 464 -150 615 -33 38 -46 62 -51 97 -7 43 -5 47 16 56 13 6
132 15 264 20 391 18 658 54 993 136 329 82 638 195 932 344 85 43 161 79 167
79 7 1 20 -10 30 -24z m753 -75 c295 -144 573 -245 892 -324 333 -82 606 -119
988 -135 135 -6 256 -15 269 -21 21 -9 23 -13 16 -56 -5 -35 -18 -59 -51 -97
-132 -151 -192 -397 -150 -615 8 -47 14 -86 13 -88 -6 -5 -121 27 -170 48
-117 49 -215 121 -470 346 -169 150 -281 234 -359 274 -96 48 -97 40 -12 -83
273 -399 697 -827 1304 -1320 209 -170 213 -176 192 -288 -15 -81 -89 -280
-115 -309 -26 -28 -93 -60 -126 -61 -58 0 -381 249 -581 449 -399 400 -674
817 -1151 1741 -37 71 -68 89 -89 50 -9 -18 0 -55 59 -228 274 -812 688 -1471
1434 -2288 138 -152 158 -178 167 -220 20 -88 -14 -238 -82 -367 -35 -65 -67
-87 -125 -87 -36 0 -47 9 -183 148 -357 364 -707 867 -1006 1447 -153 298
-234 487 -394 920 -182 493 -375 953 -471 1119 -27 47 -49 91 -49 96 0 6 9 19
20 30 18 18 23 19 48 7 15 -7 97 -47 182 -88z m-472 -402 c6 -7 12 -30 14 -52
2 -32 7 -41 25 -43 31 -5 37 -31 13 -57 -31 -33 -25 -62 13 -56 14 2 47 -19
47 -31 0 -7 -10 -22 -21 -34 -26 -28 -19 -51 17 -56 15 -2 32 -11 38 -21 9
-14 6 -21 -18 -41 -35 -28 -30 -51 13 -59 44 -9 51 -35 18 -61 -35 -28 -34
-52 3 -65 20 -6 30 -17 30 -30 0 -13 -12 -27 -30 -36 -16 -9 -30 -22 -30 -30
0 -8 14 -21 30 -30 18 -9 30 -23 30 -36 0 -13 -10 -24 -30 -30 -38 -14 -39
-43 -2 -61 36 -17 35 -49 -1 -66 -35 -17 -32 -42 6 -60 15 -7 27 -21 27 -32 0
-11 -12 -25 -27 -32 -38 -18 -41 -45 -8 -58 47 -18 42 -65 -8 -72 -32 -4 -28
-40 6 -56 36 -17 35 -47 -3 -67 -40 -20 -38 -37 5 -61 11 -6 21 -21 23 -32 3
-17 -4 -23 -30 -30 -40 -10 -52 -46 -18 -57 32 -10 24 -59 -10 -63 -38 -5 -44
-17 -30 -53 12 -27 11 -33 -2 -40 -9 -5 -19 -24 -22 -42 -8 -45 -39 -71 -81
-71 -43 0 -73 26 -81 71 -4 19 -13 37 -20 40 -17 6 -18 35 -2 51 16 16 -7 42
-38 42 -37 0 -42 38 -8 65 25 20 27 25 15 39 -7 9 -21 16 -30 16 -20 0 -41 19
-41 37 0 7 14 19 30 28 37 19 38 40 3 57 -40 19 -41 49 -2 71 36 20 34 35 -7
57 -40 23 -42 45 -5 65 39 20 40 43 1 56 -39 14 -42 55 -5 69 34 13 33 45 -2
62 -39 19 -41 44 -4 63 40 20 41 50 1 64 -39 13 -40 45 -3 63 40 19 42 46 4
59 -40 14 -44 55 -7 65 37 9 42 35 11 60 -35 28 -30 55 13 66 39 10 42 36 7
66 -21 18 -24 26 -15 42 6 12 21 20 36 20 34 0 41 26 15 54 -11 12 -21 27 -21
34 0 13 34 33 51 30 6 -2 16 5 22 14 9 14 7 22 -11 41 -26 28 -21 54 11 59 19
3 22 10 22 46 0 43 14 62 46 62 9 0 21 -6 27 -13z m-3146 -138 c100 -20 214
-84 293 -163 232 -232 231 -589 -1 -822 -78 -79 -192 -143 -292 -163 -278 -57
-560 96 -666 361 -85 215 -32 463 135 628 71 71 173 129 269 154 67 18 190 20
262 5z m6503 -4 c206 -52 371 -213 430 -419 23 -78 23 -224 0 -303 -105 -364
-505 -539 -839 -366 -98 51 -202 156 -250 254 -85 174 -85 354 0 529 70 140
228 267 380 304 79 19 206 19 279 1z m-7496 -807 c44 -14 117 -81 144 -133 16
-29 21 -59 22 -110 0 -90 -31 -154 -101 -207 -112 -86 -253 -73 -348 32 -51
56 -66 97 -66 172 1 187 165 302 349 246z m8431 -10 c95 -41 150 -127 150
-236 0 -75 -16 -116 -66 -172 -57 -63 -105 -84 -189 -84 -84 -1 -132 20 -192
81 -98 102 -95 260 9 362 80 79 179 96 288 49z m-8130 -788 c49 -25 95 -72
123 -124 16 -31 21 -58 21 -111 0 -105 -51 -187 -148 -237 -50 -26 -153 -29
-207 -6 -180 78 -216 315 -67 442 77 67 190 81 278 36z m7816 15 c191 -56 248
-313 99 -444 -53 -46 -99 -64 -170 -65 -101 -1 -188 53 -238 148 -34 64 -31
165 7 234 47 84 132 137 227 141 14 1 48 -6 75 -14z m-7463 -745 c91 -47 137
-117 145 -220 4 -61 1 -76 -22 -124 -47 -96 -132 -150 -236 -150 -103 0 -188
53 -234 146 -72 143 8 319 165 367 49 15 134 6 182 -19z m7150 0 c86 -45 136
-116 144 -207 10 -113 -39 -204 -137 -258 -129 -69 -288 -17 -354 117 -72 143
8 319 165 367 49 15 134 6 182 -19z m-6785 -706 c84 -53 140 -163 128 -254
-29 -210 -272 -302 -434 -165 -87 73 -112 212 -57 313 54 99 136 145 248 138
53 -3 78 -10 115 -32z m6414 22 c56 -20 111 -69 143 -128 92 -168 -36 -378
-229 -378 -208 0 -332 224 -221 400 63 99 196 145 307 106z"/>
<path d="M6309 12276 c-106 -28 -201 -113 -240 -215 -33 -84 -32 -198 3 -273
35 -76 107 -151 177 -185 49 -24 68 -28 151 -28 82 0 103 4 151 26 77 36 130
87 169 161 29 54 35 75 38 148 3 69 0 96 -17 142 -66 175 -254 272 -432 224z"/>
<path d="M14775 12269 c-164 -58 -252 -190 -243 -363 3 -68 10 -91 38 -144 39
-74 92 -125 169 -161 48 -22 69 -26 151 -26 84 0 101 3 150 28 76 39 143 108
176 181 37 80 39 191 5 278 -67 173 -273 269 -446 207z"/>
<path d="M7341 8288 c-70 -11 -164 -61 -207 -112 -19 -22 -47 -65 -61 -96 -23
-47 -27 -68 -28 -145 0 -78 4 -97 27 -145 43 -87 90 -135 173 -176 66 -33 82
-37 152 -36 144 0 255 66 324 194 32 60 34 68 34 163 0 90 -3 105 -28 153 -80
153 -221 225 -386 200z"/>
<path d="M13832 8290 c-112 -16 -210 -89 -269 -202 -25 -48 -28 -63 -28 -153
0 -95 2 -103 34 -163 69 -128 180 -194 324 -194 70 -1 86 3 152 36 83 41 131
89 172 176 24 47 27 68 27 145 0 77 -3 98 -27 145 -38 79 -86 132 -154 167
-51 28 -76 35 -158 47 -11 2 -44 0 -73 -4z"/>
<path d="M1378 4000 l-77 -40 5 -97 c9 -171 33 -857 31 -860 -2 -1 -207 -22
-457 -47 -250 -25 -470 -49 -489 -53 -32 -7 -36 -13 -58 -77 -12 -39 -23 -77
-23 -86 0 -17 256 -237 494 -424 534 -419 1123 -790 1905 -1201 303 -159 856
-431 927 -455 82 -29 193 -27 259 4 65 30 117 89 144 162 71 191 166 424 172
424 5 0 87 -32 184 -70 1607 -643 3372 -1026 5275 -1146 338 -21 1241 -30
1600 -15 1491 61 2925 296 4310 708 460 136 1092 360 1462 517 l37 16 69 -178
c39 -97 77 -203 85 -235 36 -137 130 -207 279 -207 93 0 138 17 448 168 1049
510 1851 990 2490 1490 151 119 398 323 473 392 l50 46 -27 82 c-26 76 -29 82
-59 87 -18 2 -236 25 -486 50 -250 24 -456 47 -459 49 -2 3 3 195 12 428 9
233 16 448 16 478 l0 56 -76 37 c-48 24 -80 35 -87 29 -7 -5 -104 -83 -217
-174 -398 -320 -677 -515 -1110 -774 -269 -162 -555 -324 -570 -324 -6 0 -52
87 -103 193 -52 105 -106 207 -121 225 -52 61 -150 106 -267 122 -117 17 -160
3 -430 -133 -1156 -585 -2535 -994 -4109 -1221 -918 -132 -1854 -193 -2587
-168 -1934 67 -3810 445 -5320 1072 -222 93 -452 199 -705 326 -250 126 -289
138 -404 124 -85 -12 -115 -20 -180 -53 -81 -41 -120 -95 -218 -306 -50 -105
-94 -191 -99 -191 -14 0 -281 151 -527 298 -445 266 -752 482 -1167 820 -116
95 -213 172 -215 172 -1 -1 -38 -19 -80 -40z m181 -288 c419 -350 841 -638
1445 -984 144 -82 262 -153 264 -157 3 -9 -359 -642 -411 -718 -86 -126 -64
-306 50 -415 39 -37 289 -159 683 -332 96 -42 186 -82 199 -89 64 -32 89 -130
42 -168 -26 -22 -81 -25 -132 -8 -58 19 -841 411 -1077 538 -734 398 -1267
743 -1776 1152 -94 75 -187 151 -206 167 l-35 30 25 6 c14 3 203 23 420 45
l395 39 42 47 c43 47 43 47 43 123 0 87 -17 568 -25 685 -2 42 -1 77 2 77 4 0
27 -17 52 -38z m18202 -306 c-6 -176 -13 -359 -16 -406 l-5 -85 45 -48 45 -49
415 -42 c228 -23 416 -44 419 -47 7 -7 -260 -225 -455 -371 -613 -460 -1194
-807 -2179 -1299 -410 -204 -467 -229 -526 -229 -51 0 -88 40 -81 86 6 37 40
86 72 103 11 5 153 69 315 142 474 211 551 250 583 292 90 119 101 293 25 399
-24 35 -418 719 -418 727 0 4 48 33 108 65 590 324 1122 673 1537 1010 67 54
121 92 124 85 2 -6 -2 -156 -8 -333z m-15544 -420 c765 -382 1561 -672 2490
-907 1304 -329 2854 -516 4108 -496 1458 24 3060 269 4388 672 703 213 1280
441 1857 733 l245 123 71 -4 c47 -2 87 -12 119 -27 l47 -23 117 -241 c65 -132
197 -379 294 -548 97 -169 177 -310 177 -313 0 -3 -6 -5 -14 -5 -8 0 -144 -62
-303 -139 -605 -291 -853 -399 -1301 -568 -1781 -669 -3878 -1042 -5867 -1043
-1661 0 -3399 257 -4970 735 -534 163 -1187 402 -1550 568 -160 73 -591 276
-788 371 -86 42 -164 76 -173 76 -10 0 -14 6 -11 15 4 8 88 157 188 331 100
175 228 414 284 532 57 118 109 221 117 228 26 26 112 53 170 54 54 0 73 -8
305 -124z m14028 -1241 c30 -30 35 -107 9 -144 -10 -14 -74 -51 -153 -88 -158
-75 -521 -240 -633 -288 -42 -18 -89 -42 -104 -54 -15 -12 -30 -18 -34 -14
-16 19 -69 168 -63 174 5 5 114 57 243 117 129 61 325 154 435 207 264 129
263 128 300 90z m-14992 -51 c192 -97 582 -280 744 -350 l31 -14 -35 -88 -35
-88 -66 33 c-37 18 -155 71 -262 118 -107 47 -283 127 -390 178 -191 90 -196
93 -217 137 -28 55 -29 80 -2 114 35 44 79 36 232 -40z"/>
<path d="M4525 2049 c-93 -231 -171 -423 -172 -427 -3 -7 623 -262 640 -262 9
0 57 104 57 124 0 8 -90 50 -227 105 -126 51 -231 96 -235 100 -8 7 81 231 92
231 4 0 101 -38 216 -85 114 -47 208 -84 209 -82 7 9 55 140 53 142 -2 1 -86
35 -188 75 -102 40 -197 79 -212 87 l-27 13 30 72 c17 40 35 83 39 95 9 21 13
20 232 -68 122 -49 227 -89 233 -89 9 0 69 130 63 135 -3 2 -597 242 -622 251
-7 2 -76 -158 -181 -417z"/>
<path d="M16268 2352 c-159 -64 -288 -121 -288 -126 0 -6 12 -41 27 -79 l26
-68 159 -80 c87 -45 158 -87 158 -94 0 -7 -23 -89 -50 -181 -28 -93 -52 -176
-52 -184 -3 -23 54 -160 66 -160 6 0 146 55 312 122 l301 122 -24 60 c-14 34
-29 65 -33 70 -5 5 -93 -25 -210 -73 -111 -45 -204 -81 -206 -78 -2 2 21 87
52 188 31 101 57 190 58 197 0 7 -68 50 -153 95 -84 46 -154 86 -155 91 0 4
79 40 178 80 98 39 179 75 179 79 1 13 -47 137 -53 137 -3 -1 -134 -53 -292
-118z"/>
<path d="M15598 2104 l-77 -24 55 -162 c30 -89 54 -168 54 -174 0 -11 -337
-131 -345 -123 -1 2 -26 78 -55 169 -29 91 -54 167 -57 169 -2 3 -42 -8 -89
-23 -78 -25 -84 -29 -78 -49 16 -55 276 -852 277 -853 1 -1 39 10 85 24 58 18
82 30 82 41 0 9 -25 91 -55 181 -30 90 -55 172 -55 180 0 12 41 30 163 68 90
29 168 52 173 52 6 0 37 -82 69 -182 32 -101 60 -186 62 -190 3 -7 152 39 166
52 13 12 -269 870 -286 869 -7 0 -47 -12 -89 -25z"/>
<path d="M5768 1978 c-30 -40 -161 -216 -291 -390 l-236 -317 83 -26 c46 -14
90 -25 97 -25 8 1 104 129 214 285 110 157 203 285 206 285 4 0 10 -114 14
-252 4 -139 10 -300 14 -357 l6 -104 90 -27 c80 -25 90 -26 92 -11 2 9 -7 227
-20 486 l-22 470 -62 22 c-124 44 -122 45 -185 -39z"/>
<path d="M14635 1822 l-100 -27 -129 -237 c-71 -131 -133 -238 -136 -238 -4 0
-27 81 -50 180 -24 99 -47 185 -51 191 -5 8 -27 6 -83 -7 -41 -9 -80 -20 -85
-23 -8 -5 201 -877 213 -889 5 -5 150 28 165 38 6 3 -3 58 -23 137 l-33 131
48 82 c26 46 53 88 59 94 8 8 58 -38 183 -167 l172 -179 113 28 c61 16 112 31
112 34 0 3 -98 96 -218 207 -119 111 -228 213 -240 226 l-24 25 118 204 c64
111 119 206 121 211 7 12 -27 7 -132 -21z"/>
<path d="M7124 1235 l-272 -413 72 -16 c361 -79 821 -174 825 -171 2 3 -33
223 -79 489 l-83 483 -81 17 c-45 10 -88 19 -96 21 -10 3 -97 -120 -286 -410z
m326 163 c0 -7 18 -130 40 -273 22 -142 40 -267 40 -275 0 -14 -24 -12 -182
22 -101 21 -190 41 -199 45 -14 7 9 50 135 250 83 134 154 243 159 243 4 0 7
-6 7 -12z"/>
<path d="M13282 1535 c-34 -7 -64 -14 -66 -16 -5 -5 -197 -962 -193 -965 1 -1
42 6 90 15 55 10 92 22 97 31 4 8 15 57 23 109 9 51 18 95 19 96 2 1 73 15
158 30 85 14 167 29 181 32 23 4 30 -3 83 -91 31 -53 62 -96 68 -96 5 0 50 7
98 16 l88 16 -43 72 c-24 39 -140 226 -258 416 -243 391 -213 362 -345 335z
m163 -376 c71 -122 82 -145 67 -150 -29 -10 -223 -42 -227 -37 -3 2 9 78 25
169 16 90 30 168 30 174 0 18 22 -14 105 -156z"/>
<path d="M12535 1440 c-71 -9 -219 -27 -329 -40 l-198 -24 7 -70 c3 -39 10
-74 13 -77 4 -3 90 5 192 18 102 12 194 22 206 21 18 -3 -5 -45 -181 -326
l-201 -323 9 -77 c5 -42 12 -80 15 -83 4 -3 171 15 372 40 l365 46 -4 40 c-1
22 -6 56 -9 75 l-7 36 -255 -32 c-140 -17 -257 -30 -258 -28 -2 1 91 154 208
340 l211 337 -7 69 c-4 38 -9 70 -13 71 -3 2 -64 -4 -136 -13z"/>
<path d="M8800 1403 c0 -10 -21 -215 -46 -456 -25 -241 -44 -441 -41 -443 2
-2 41 -7 86 -11 69 -5 81 -4 81 9 0 9 16 164 35 344 19 181 35 333 35 338 0
43 16 -50 60 -359 28 -198 52 -361 53 -361 1 -1 41 -5 88 -9 l86 -7 15 38 c9
22 62 165 118 319 57 154 107 291 112 304 5 13 10 22 12 20 2 -2 -13 -159 -33
-349 -25 -235 -34 -347 -27 -351 6 -4 44 -9 83 -13 70 -6 73 -5 77 16 3 13 24
203 46 423 22 220 43 416 46 436 l5 36 -137 13 c-103 9 -138 10 -143 1 -4 -6
-57 -142 -117 -301 -83 -221 -111 -285 -116 -267 -4 12 -27 154 -53 316 -25
162 -47 296 -48 298 -2 1 -48 7 -103 13 -54 6 -116 13 -136 16 -32 5 -38 3
-38 -13z"/>
<path d="M11696 1351 l-89 -6 -93 -180 c-51 -99 -97 -181 -102 -183 -5 -1 -60
74 -122 168 l-113 170 -71 0 c-39 0 -87 -3 -107 -6 l-37 -6 182 -256 181 -256
10 -191 10 -190 89 3 c49 1 91 3 92 5 1 1 -3 88 -8 192 l-11 191 138 244 c75
135 146 260 157 278 19 30 19 32 1 30 -10 -1 -58 -4 -107 -7z"/>
<path d="M10243 1315 c-146 -40 -248 -146 -289 -300 -68 -253 22 -505 210
-591 139 -64 331 -58 452 12 53 31 126 108 153 163 50 98 70 286 42 405 -27
114 -111 225 -209 275 -98 50 -250 65 -359 36z m231 -157 c57 -17 119 -82 141
-148 36 -108 18 -289 -37 -370 -52 -78 -154 -117 -253 -99 -147 27 -226 180
-197 379 17 122 62 192 147 231 47 22 139 25 199 7z"/>
<path d="M6342 1043 c-11 -43 -17 -81 -14 -85 4 -3 41 -15 83 -26 l77 -19 22
80 c12 44 18 83 13 87 -8 7 -132 40 -151 40 -5 0 -18 -35 -30 -77z"/>
<path d="M8041 679 c-7 -45 -9 -85 -4 -89 8 -7 154 -33 158 -28 2 2 9 38 16
81 15 91 15 91 -65 101 -28 4 -61 9 -72 12 -20 5 -22 0 -33 -77z"/>
</g>
</svg>
